<?xml version="1.0" encoding="UTF-8"?>
<svg width="22px" height="22px" viewBox="0 0 22 22" version="1.1" xmlns="http://www.w3.org/2000/svg" xmlns:xlink="http://www.w3.org/1999/xlink">
    <title>设置黄</title>
    <defs>
        <linearGradient x1="100%" y1="-25.820398%" x2="57.7824074%" y2="100%" id="linearGradient-1">
            <stop stop-color="#FFB001" offset="0%"></stop>
            <stop stop-color="#FF7000" offset="100%"></stop>
        </linearGradient>
    </defs>
    <g id="页面-1" stroke="none" stroke-width="1" fill="none" fill-rule="evenodd">
        <g id="设置黄">
            <circle id="椭圆形" fill="url(#linearGradient-1)" cx="11" cy="11" r="11"></circle>
            <g id="编组" transform="translate(5.000000, 5.000000)" fill="#FFFFFF">
                <g transform="translate(0.305067, 0.000400)" id="Fill-4">
                    <path d="M5.69493297,3.585 C4.31993297,3.585 3.20593297,4.699 3.20593297,6.074 C3.20593297,7.449 4.31993297,8.564 5.69493297,8.564 C7.06993297,8.564 8.18393297,7.449 8.18393297,6.074 C8.18393297,4.699 7.06993297,3.585 5.69493297,3.585 M6.43613297,0 C6.96513297,0 7.39513297,0.429 7.39513297,0.959 L7.39513297,0.959 L7.39513297,1.121 C7.39513297,1.773 7.93013297,2.239 8.51313297,2.239 C8.69913297,2.239 8.89013297,2.192 9.07013297,2.088 L9.07013297,2.088 L9.21013297,2.007 C9.36113297,1.92 9.52613297,1.878 9.68913297,1.878 C10.020133,1.878 10.343133,2.051 10.521133,2.358 L10.521133,2.358 L11.261133,3.642 C11.526133,4.1 11.369133,4.687 10.911133,4.951 L10.911133,4.951 L10.770133,5.033 C10.025133,5.463 10.025133,6.537 10.770133,6.967 L10.770133,6.967 L10.911133,7.048 C11.369133,7.312 11.526133,7.899 11.261133,8.358 L11.261133,8.358 L10.521133,9.642 C10.343133,9.949 10.020133,10.121 9.68913297,10.121 C9.52613297,10.121 9.36113297,10.079 9.21013297,9.992 L9.21013297,9.992 L9.07013297,9.911 C8.88913297,9.808 8.69913297,9.76 8.51313297,9.76 C7.93013297,9.76 7.39513297,10.227 7.39513297,10.878 L7.39513297,10.878 L7.39513297,11.04 C7.39513297,11.57 6.96513297,12 6.43613297,12 L6.43613297,12 L4.95413297,12 C4.42413297,12 3.99513297,11.57 3.99513297,11.04 L3.99513297,11.04 L3.99513297,10.878 C3.99513297,10.227 3.45913297,9.76 2.87613297,9.76 C2.69113297,9.76 2.49913297,9.808 2.32013297,9.911 L2.32013297,9.911 L2.17913297,9.992 C2.02813297,10.079 1.86413297,10.121 1.70113297,10.121 C1.36913297,10.121 1.04613297,9.949 0.869132973,9.642 L0.869132973,9.642 L0.128132973,8.358 C-0.135867027,7.899 0.0211329733,7.312 0.479132973,7.048 L0.479132973,7.048 L0.620132973,6.967 C1.36513297,6.537 1.36513297,5.463 0.620132973,5.033 L0.620132973,5.033 L0.479132973,4.951 C0.0211329733,4.687 -0.135867027,4.1 0.128132973,3.642 L0.128132973,3.642 L0.869132973,2.358 C1.04613297,2.051 1.36913297,1.878 1.70113297,1.878 C1.86413297,1.878 2.02813297,1.92 2.17913297,2.007 L2.17913297,2.007 L2.32013297,2.088 C2.49913297,2.192 2.69113297,2.239 2.87613297,2.239 C3.45913297,2.239 3.99513297,1.773 3.99513297,1.121 L3.99513297,1.121 L3.99513297,0.959 C3.99513297,0.429 4.42413297,0 4.95413297,0 L4.95413297,0 Z M6.43613297,0.75 L4.95413297,0.75 C4.83813297,0.75 4.74513297,0.844 4.74513297,0.959 L4.74513297,0.959 L4.74513297,1.121 C4.74513297,2.151 3.90713297,2.989 2.87613297,2.989 C2.55213297,2.989 2.23013297,2.902 1.94513297,2.737 L1.94513297,2.737 L1.80413297,2.656 C1.77213297,2.638 1.73713297,2.628 1.70113297,2.628 C1.67213297,2.628 1.57513297,2.636 1.51913297,2.733 L1.51913297,2.733 L0.778132973,4.017 C0.742132973,4.078 0.747132973,4.137 0.757132973,4.175 C0.767132973,4.213 0.792132973,4.267 0.854132973,4.302 L0.854132973,4.302 L0.996132973,4.384 C1.58013297,4.721 1.92813297,5.325 1.92813297,6 C1.92813297,6.675 1.58013297,7.278 0.995132973,7.616 L0.995132973,7.616 L0.854132973,7.697 C0.754132973,7.755 0.720132973,7.883 0.778132973,7.983 L0.778132973,7.983 L1.51913297,9.266 C1.57513297,9.363 1.67213297,9.371 1.70113297,9.371 C1.73713297,9.371 1.77213297,9.361 1.80413297,9.343 L1.80413297,9.343 L1.94513297,9.262 C2.23013297,9.097 2.55213297,9.01 2.87613297,9.01 C3.90713297,9.01 4.74513297,9.848 4.74513297,10.878 L4.74513297,10.878 L4.74513297,11.04 C4.74513297,11.155 4.83813297,11.25 4.95413297,11.25 L4.95413297,11.25 L6.43613297,11.25 C6.55113297,11.25 6.64513297,11.155 6.64513297,11.04 L6.64513297,11.04 L6.64513297,10.878 C6.64513297,9.848 7.48313297,9.01 8.51313297,9.01 C8.83713297,9.01 9.16013297,9.097 9.44513297,9.262 L9.44513297,9.262 L9.58513297,9.343 C9.61813297,9.361 9.65313297,9.371 9.68913297,9.371 C9.71713297,9.371 9.81513297,9.363 9.87113297,9.267 L9.87113297,9.267 L10.612133,7.983 C10.648133,7.921 10.643133,7.862 10.632133,7.824 C10.623133,7.786 10.597133,7.733 10.536133,7.697 L10.536133,7.697 L10.394133,7.616 C9.81013297,7.278 9.46113297,6.675 9.46113297,6 C9.46113297,5.325 9.81013297,4.721 10.395133,4.383 L10.395133,4.383 L10.535133,4.302 C10.597133,4.267 10.623133,4.213 10.632133,4.175 C10.643133,4.137 10.648133,4.078 10.612133,4.017 L10.612133,4.017 L9.87113297,2.733 C9.81513297,2.636 9.71713297,2.628 9.68913297,2.628 C9.65313297,2.628 9.61813297,2.638 9.58513297,2.656 L9.58513297,2.656 L9.44513297,2.738 C9.16013297,2.902 8.83713297,2.989 8.51313297,2.989 C7.48313297,2.989 6.64513297,2.151 6.64513297,1.121 L6.64513297,1.121 L6.64513297,0.959 C6.64513297,0.844 6.55113297,0.75 6.43613297,0.75 L6.43613297,0.75 Z M5.69493297,4.335 C6.65393297,4.335 7.43393297,5.115 7.43393297,6.074 C7.43393297,7.034 6.65393297,7.814 5.69493297,7.814 C4.73593297,7.814 3.95593297,7.034 3.95593297,6.074 C3.95593297,5.115 4.73593297,4.335 5.69493297,4.335 Z"></path>
                </g>
            </g>
        </g>
    </g>
</svg>