<?xml version="1.0" encoding="UTF-8"?>
<svg width="22px" height="22px" viewBox="0 0 22 22" version="1.1" xmlns="http://www.w3.org/2000/svg" xmlns:xlink="http://www.w3.org/1999/xlink">
    <title>规则黄</title>
    <defs>
        <linearGradient x1="100%" y1="-25.820398%" x2="57.7824074%" y2="100%" id="linearGradient-1">
            <stop stop-color="#FFB001" offset="0%"></stop>
            <stop stop-color="#FF7000" offset="100%"></stop>
        </linearGradient>
    </defs>
    <g id="页面-1" stroke="none" stroke-width="1" fill="none" fill-rule="evenodd">
        <g id="规则黄">
            <circle id="椭圆形" fill="url(#linearGradient-1)" cx="11" cy="11" r="11"></circle>
            <g id="编组" transform="translate(5.000000, 5.000000)" fill="#FFFFFF">
                <g transform="translate(1.041100, 0.199800)" id="形状结合">
                    <path d="M6.975,0 C7.705,0 8.302,0.598 8.302,1.328 L8.302,1.328 L8.302,8.753 C8.302,9.067 8.047,9.322 7.733,9.322 L7.733,9.322 L1.514,9.322 C1.093,9.322 0.75,9.665 0.75,10.086 C0.75,10.507 1.093,10.85 1.514,10.85 L1.514,10.85 L8.807,10.85 C9.002,10.85 9.167,10.685 9.167,10.489 L9.167,10.489 L9.167,2.334 C9.167,2.128 9.336,1.959 9.542,1.959 C9.749,1.959 9.917,2.128 9.917,2.334 L9.917,2.334 L9.917,10.489 C9.917,11.1 9.418,11.6 8.807,11.6 L8.807,11.6 L1.514,11.6 C0.682,11.6 0,10.919 0,10.086 C0,10.045 0.009,10.007 0.012,9.967 C0.009,9.99 0,10.007 0,10.034 L0,10.034 L0,1.328 C0,0.598 0.597,0 1.327,0 L1.327,0 Z M7.9272,9.7108 C8.1332,9.7108 8.3022,9.8798 8.3022,10.0858 C8.3022,10.2928 8.1332,10.4608 7.9272,10.4608 L7.9272,10.4608 L1.7622,10.4608 C1.5552,10.4608 1.3872,10.2928 1.3872,10.0858 C1.3872,9.8798 1.5552,9.7108 1.7622,9.7108 L1.7622,9.7108 Z M6.975,0.75 L1.327,0.75 C1.008,0.75 0.75,1.009 0.75,1.328 L0.75,1.328 L0.75,8.766 C0.75,8.775 0.748,8.78 0.747,8.789 C0.973,8.655 1.233,8.572 1.514,8.572 L1.514,8.572 L7.286,8.572 C7.433,8.572 7.552,8.453 7.552,8.306 L7.552,8.306 L7.552,1.328 C7.552,1.009 7.293,0.75 6.975,0.75 L6.975,0.75 Z M4.2276,3.4061 C4.4346,3.4061 4.6026,3.5751 4.6026,3.7811 C4.6026,3.9881 4.4346,4.1561 4.2276,4.1561 L1.9776,4.1561 C1.79735,4.1561 1.64542813,4.027475 1.61026406,3.85664492 L1.6026,3.7811 C1.6026,3.5751 1.7716,3.4061 1.9776,3.4061 L4.2276,3.4061 Z M4.9466,2.0345 C5.1526,2.0345 5.3216,2.2025 5.3216,2.4095 C5.3216,2.6155 5.1526,2.7845 4.9466,2.7845 L1.9776,2.7845 C1.79735,2.7845 1.64542813,2.65510937 1.61026406,2.48475781 L1.6026,2.4095 C1.6026,2.2025 1.7716,2.0345 1.9776,2.0345 L4.9466,2.0345 Z"></path>
                </g>
            </g>
        </g>
    </g>
</svg>