<?xml version="1.0" encoding="UTF-8"?>
<svg width="22px" height="22px" viewBox="0 0 22 22" version="1.1" xmlns="http://www.w3.org/2000/svg" xmlns:xlink="http://www.w3.org/1999/xlink">
    <title>活动黄</title>
    <defs>
        <linearGradient x1="100%" y1="-25.820398%" x2="57.7824074%" y2="100%" id="linearGradient-1">
            <stop stop-color="#FFB001" offset="0%"></stop>
            <stop stop-color="#FF7000" offset="100%"></stop>
        </linearGradient>
    </defs>
    <g id="页面-1" stroke="none" stroke-width="1" fill="none" fill-rule="evenodd">
        <g id="活动黄">
            <circle id="椭圆形" fill="url(#linearGradient-1)" cx="11" cy="11" r="11"></circle>
            <g id="编组" transform="translate(4.999900, 5.000000)">
                <polygon id="Fill-1" points="9.99999993e-05 12 12.0001 12 12.0001 0 9.99999993e-05 0"></polygon>
                <g transform="translate(0.000000, 0.000800)" fill="#FFFFFF" id="Fill-2">
                    <path d="M11.25,5.021 C11.25,5.221 11.087,5.383 10.887,5.383 L7.977,5.383 L7.977,3.883 L10.887,3.883 C11.087,3.883 11.25,4.046 11.25,4.247 L11.25,5.021 Z M9.468,11.25 L7.161,11.25 L7.161,6.133 L10.25,6.133 L10.25,10.466 C10.25,10.898 9.899,11.25 9.468,11.25 L9.468,11.25 Z M1.75,10.466 L1.75,6.133 L4.84,6.133 L4.84,11.25 L2.532,11.25 C2.102,11.25 1.75,10.898 1.75,10.466 L1.75,10.466 Z M0.75,5.021 L0.75,4.247 C0.75,4.046 0.913,3.883 1.113,3.883 L4.023,3.883 L4.023,5.383 L1.113,5.383 C0.913,5.383 0.75,5.221 0.75,5.021 L0.75,5.021 Z M5.59,11.25 L6.411,11.25 L6.411,6.134 L5.59,6.134 L5.59,11.25 Z M4.773,5.383 L7.226,5.383 L7.226,3.883 L4.773,3.883 L4.773,5.383 Z M2.939,2.335 L4.504,0.777 C4.522,0.757 4.541,0.75 4.564,0.75 C4.582,0.75 4.641,0.754 4.657,0.818 L5.245,3.09 L2.98,2.489 C2.967,2.485 2.93,2.475 2.916,2.424 C2.902,2.373 2.93,2.346 2.939,2.335 L2.939,2.335 Z M7.344,0.818 C7.36,0.754 7.418,0.75 7.436,0.75 C7.459,0.75 7.478,0.757 7.497,0.777 L9.061,2.335 C9.071,2.346 9.099,2.373 9.085,2.424 C9.071,2.475 9.033,2.485 9.02,2.489 L6.755,3.09 L7.344,0.818 Z M10.887,3.133 L9.405,3.133 C9.877,2.874 9.999,2.211 9.59,1.804 L8.026,0.246 C7.857,0.077 7.645,0 7.436,0 C7.073,0 6.721,0.232 6.617,0.63 L6,3.013 L5.383,0.63 C5.279,0.232 4.927,0 4.564,0 C4.355,0 4.143,0.077 3.974,0.246 L2.41,1.804 C2.002,2.211 2.124,2.874 2.596,3.133 L1.113,3.133 C0.498,3.133 0,3.632 0,4.247 L0,5.021 C0,5.595 0.441,6.051 1,6.111 L1,10.466 C1,11.313 1.687,12 2.532,12 L9.468,12 C10.314,12 11,11.313 11,10.466 L11,6.111 C11.559,6.051 12,5.595 12,5.021 L12,4.247 C12,3.632 11.502,3.133 10.887,3.133 L10.887,3.133 Z"></path>
                </g>
            </g>
        </g>
    </g>
</svg>